<?xml version="1.0" standalone="no"?>
<!DOCTYPE svg PUBLIC "-//W3C//DTD SVG 20010904//EN"
 "http://www.w3.org/TR/2001/REC-SVG-20010904/DTD/svg10.dtd">
<svg version="1.0" xmlns="http://www.w3.org/2000/svg"
 width="128.000000pt" height="128.000000pt" viewBox="0 0 128.000000 128.000000"
 preserveAspectRatio="xMidYMid meet">

<g transform="translate(0.000000,128.000000) scale(0.100000,-0.100000)"
fill="#000000" stroke="none">
<path d="M210 1264 c0 -10 4 -12 13 -7 19 13 831 11 839 -1 5 -7 8 -4 8 7 0
16 -27 17 -430 17 -383 0 -430 -2 -430 -16z"/>
<path d="M236 1213 c9 -49 14 -54 14 -15 0 28 4 32 26 32 14 0 23 4 19 10 -3
6 -20 10 -36 10 -29 0 -30 -1 -23 -37z"/>
<path d="M326 1242 c-2 -4 22 -8 55 -9 33 0 57 3 53 8 -6 11 -101 12 -108 1z"/>
<path d="M466 1242 c-2 -4 30 -8 71 -9 47 0 70 2 62 8 -17 11 -126 12 -133 1z"/>
<path d="M671 1241 c-10 -6 14 -9 66 -8 45 1 79 5 77 9 -7 11 -126 10 -143 -1z"/>
<path d="M846 1241 c-4 -5 20 -8 54 -8 33 1 60 5 60 9 0 11 -108 10 -114 -1z"/>
<path d="M985 1240 c-4 -6 5 -10 19 -10 22 0 26 -5 27 -32 1 -31 1 -32 9 -8
16 49 12 60 -19 60 -17 0 -33 -4 -36 -10z"/>
<path d="M212 935 c4 -257 7 -297 25 -355 54 -172 152 -303 276 -369 l42 -23
-28 26 c-15 14 -35 26 -42 26 -8 0 -22 12 -32 26 -9 14 -27 30 -40 35 -13 5
-32 23 -43 41 -10 18 -28 44 -40 56 -11 13 -23 36 -27 50 -3 15 -14 38 -25 51
-10 13 -18 36 -18 50 0 15 -4 31 -9 37 -17 17 -22 98 -25 361 -1 145 -6 266
-10 270 -4 5 -6 -123 -4 -282z"/>
<path d="M740 1212 c0 -5 7 -15 15 -22 8 -7 15 -8 15 -2 0 5 -7 15 -15 22 -8
7 -15 8 -15 2z"/>
<path d="M1059 1198 c-5 -99 -3 -458 3 -478 3 -14 7 93 7 238 1 144 -1 262 -4
262 -3 0 -5 -10 -6 -22z"/>
<path d="M352 1190 c0 -14 2 -19 5 -12 2 6 2 18 0 25 -3 6 -5 1 -5 -13z"/>
<path d="M422 1190 c0 -14 2 -19 5 -12 2 6 2 18 0 25 -3 6 -5 1 -5 -13z"/>
<path d="M441 1194 c0 -11 3 -14 6 -6 3 7 2 16 -1 19 -3 4 -6 -2 -5 -13z"/>
<path d="M492 1190 c0 -14 2 -19 5 -12 2 6 2 18 0 25 -3 6 -5 1 -5 -13z"/>
<path d="M511 1194 c0 -11 3 -14 6 -6 3 7 2 16 -1 19 -3 4 -6 -2 -5 -13z"/>
<path d="M570 1205 c0 -5 5 -17 10 -25 5 -8 10 -10 10 -5 0 6 -5 17 -10 25 -5
8 -10 11 -10 5z"/>
<path d="M632 1190 c0 -14 2 -19 5 -12 2 6 2 18 0 25 -3 6 -5 1 -5 -13z"/>
<path d="M692 1190 c0 -14 2 -19 5 -12 2 6 2 18 0 25 -3 6 -5 1 -5 -13z"/>
<path d="M811 1194 c0 -11 3 -14 6 -6 3 7 2 16 -1 19 -3 4 -6 -2 -5 -13z"/>
<path d="M880 1195 c0 -8 2 -15 4 -15 2 0 6 7 10 15 3 8 1 15 -4 15 -6 0 -10
-7 -10 -15z"/>
<path d="M970 1203 c0 -4 5 -15 10 -23 8 -13 10 -13 10 2 0 9 -4 20 -10 23 -5
3 -10 3 -10 -2z"/>
<path d="M910 1179 c0 -5 5 -7 10 -4 6 3 10 8 10 11 0 2 -4 4 -10 4 -5 0 -10
-5 -10 -11z"/>
<path d="M244 1134 c-3 -11 -4 -43 -1 -70 l3 -49 2 58 2 57 390 0 390 0 0
-182 c0 -100 3 -178 7 -174 7 7 6 341 -2 366 -4 13 -57 15 -395 15 -387 0
-391 0 -396 -21z"/>
<path d="M840 1072 c-13 -14 -12 -15 2 -9 12 4 15 2 11 -9 -3 -7 -13 -14 -22
-15 -11 0 -9 -3 7 -9 27 -11 27 -17 5 -44 -10 -12 -11 -15 -3 -8 21 18 29 15
23 -10 -4 -20 -3 -21 7 -5 6 9 17 17 25 17 8 0 19 -8 24 -17 10 -17 10 -17 11
0 0 9 3 17 6 17 4 0 13 -8 20 -17 7 -10 14 -13 14 -7 0 6 -7 18 -16 25 -14 12
-14 14 3 20 16 7 16 8 1 8 -10 1 -18 5 -18 10 0 5 8 12 18 14 12 3 9 5 -8 6
-25 2 -25 2 -5 17 20 16 20 16 -2 9 -12 -3 -33 0 -45 6 -33 18 -41 18 -58 1z"/>
<path d="M910 1079 c0 -5 5 -7 10 -4 6 3 10 8 10 11 0 2 -4 4 -10 4 -5 0 -10
-5 -10 -11z"/>
<path d="M330 1010 c-13 -8 -12 -11 5 -24 11 -9 24 -16 28 -16 5 0 7 -34 5
-75 -2 -62 0 -75 12 -75 12 0 14 13 12 75 -2 41 0 75 5 75 4 0 17 7 28 16 17
13 18 16 5 24 -8 5 -31 10 -50 10 -19 0 -42 -5 -50 -10z m90 -9 c0 -14 -37
-23 -60 -16 -34 11 -22 25 20 25 22 0 40 -4 40 -9z"/>
<path d="M825 1010 c-3 -6 1 -7 9 -4 18 7 21 14 7 14 -6 0 -13 -4 -16 -10z"/>
<path d="M238 905 c-2 -52 0 -105 4 -117 3 -13 6 30 7 95 1 64 -1 117 -3 117
-3 0 -6 -43 -8 -95z"/>
<path d="M630 950 c0 -11 5 -20 10 -20 6 0 10 9 10 20 0 11 -4 20 -10 20 -5 0
-10 -9 -10 -20z"/>
<path d="M455 796 c-33 -15 -57 -47 -47 -63 4 -5 39 -10 79 -10 54 0 73 4 78
15 7 18 -10 39 -46 58 -33 17 -27 17 -64 0z m65 -17 c23 0 23 -1 5 -9 -27 -12
-58 -12 -51 -1 4 5 -4 7 -16 3 -15 -4 -19 -2 -13 7 4 7 17 10 29 7 11 -3 32
-6 46 -7z m-65 -29 c-3 -5 -10 -10 -16 -10 -5 0 -9 5 -9 10 0 6 7 10 16 10 8
0 12 -4 9 -10z m85 0 c0 -5 -7 -10 -15 -10 -8 0 -15 5 -15 10 0 6 7 10 15 10
8 0 15 -4 15 -10z"/>
<path d="M751 789 c-18 -11 -35 -29 -38 -40 -6 -23 -6 -23 -44 -4 -23 12 -34
13 -52 4 -36 -19 -57 -41 -57 -61 0 -16 9 -18 81 -18 l82 0 -6 28 -6 27 77 -2
c81 -1 98 7 81 39 -9 17 -58 48 -76 48 -4 0 -23 -9 -42 -21z m74 -9 c17 0 17
-2 5 -10 -19 -12 -53 -13 -46 -1 4 5 -4 7 -16 3 -15 -4 -19 -2 -13 7 4 7 17
10 29 7 11 -3 30 -6 41 -6z m-60 -30 c-3 -5 -10 -10 -16 -10 -5 0 -9 5 -9 10
0 6 7 10 16 10 8 0 12 -4 9 -10z m85 0 c0 -5 -7 -10 -15 -10 -8 0 -15 5 -15
10 0 6 7 10 15 10 8 0 15 -4 15 -10z m-175 -20 c17 0 17 -2 5 -10 -21 -13 -53
-13 -44 1 4 8 -1 9 -16 4 -16 -5 -20 -4 -15 5 4 6 17 9 29 6 11 -3 30 -6 41
-6z m-65 -30 c0 -5 -7 -10 -15 -10 -8 0 -15 5 -15 10 0 6 7 10 15 10 8 0 15
-4 15 -10z m90 0 c0 -5 -9 -10 -21 -10 -11 0 -17 5 -14 10 3 6 13 10 21 10 8
0 14 -4 14 -10z"/>
<path d="M246 747 c-5 -9 -5 -30 -1 -45 3 -15 9 -45 12 -67 3 -22 9 -44 14
-49 5 -6 9 -21 9 -35 0 -15 9 -37 20 -51 11 -14 20 -32 20 -41 0 -9 13 -33 30
-54 16 -20 32 -45 35 -55 3 -11 15 -22 25 -25 11 -3 30 -19 43 -35 14 -16 41
-36 61 -44 20 -8 36 -20 36 -25 0 -6 12 -11 27 -11 14 0 34 -7 44 -16 16 -15
20 -15 41 0 12 9 32 16 43 16 11 0 28 9 38 20 9 11 23 20 32 20 8 0 29 16 46
35 18 19 38 35 45 35 8 0 22 17 33 38 10 20 28 46 40 56 12 11 21 26 21 35 0
9 9 30 20 46 11 17 20 42 20 57 0 15 4 29 9 32 8 5 12 28 28 139 3 20 1 37 -5
37 -5 0 -12 -31 -15 -68 -19 -197 -140 -379 -304 -458 l-73 -35 -73 35 c-165
79 -280 253 -305 461 -6 47 -11 64 -16 52z"/>
<path d="M336 715 c4 -8 7 -15 9 -15 2 0 5 7 9 15 3 9 0 15 -9 15 -9 0 -12 -6
-9 -15z"/>
<path d="M315 680 c-8 -13 51 -17 64 -4 12 11 -11 15 -24 4 -10 -8 -15 -9 -15
-1 0 14 -17 15 -25 1z"/>
<path d="M1047 677 c-4 -10 -7 -34 -7 -52 0 -19 -4 -37 -10 -40 -5 -3 -10 -19
-10 -34 0 -16 -8 -39 -18 -52 -11 -13 -22 -36 -26 -51 -20 -85 43 47 68 143
18 64 20 128 3 86z"/>
<path d="M375 650 c-3 -5 1 -13 10 -16 22 -9 29 1 11 15 -10 8 -16 9 -21 1z"/>
<path d="M314 635 c-9 -22 1 -29 15 -11 8 10 9 16 1 21 -5 3 -13 -1 -16 -10z"/>
<path d="M352 613 c-6 -3 -10 -8 -7 -13 3 -5 1 -20 -5 -34 -10 -29 0 -35 20
-11 7 8 9 15 4 15 -4 0 -2 6 4 12 10 10 15 10 21 -1 6 -8 16 -11 26 -7 19 7
16 16 -8 20 -8 1 -21 7 -28 13 -8 5 -20 8 -27 6z"/>
<path d="M366 531 c-3 -5 3 -11 14 -14 11 -3 20 -1 20 5 0 5 5 6 10 3 16 -10
-8 -35 -26 -28 -10 3 -14 -2 -14 -18 l0 -22 23 20 c12 12 31 23 41 25 19 3 19
4 2 21 -18 18 -61 23 -70 8z"/>
<path d="M802 470 c-18 -29 -15 -38 4 -12 9 13 14 25 12 27 -2 2 -9 -5 -16
-15z"/>
<path d="M422 466 c-27 -14 -20 -26 13 -20 13 2 27 -1 31 -7 9 -15 -17 -30
-32 -18 -8 7 -14 6 -19 -1 -11 -18 5 -30 31 -24 23 6 24 4 18 -20 -5 -21 -3
-25 10 -20 9 3 16 10 16 14 0 4 9 10 21 13 12 3 18 10 14 16 -9 15 -35 14 -35
-1 0 -8 -3 -9 -10 -2 -12 12 -3 44 12 44 5 0 6 5 3 10 -3 6 -15 10 -25 10 -10
0 -20 4 -22 9 -2 6 -13 4 -26 -3z"/>
<path d="M565 458 c-18 -17 -14 -18 75 -18 89 0 93 1 75 18 -13 12 -35 17 -75
17 -40 0 -62 -5 -75 -17z"/>
<path d="M749 413 c-13 -17 -13 -17 6 -3 11 8 22 16 24 17 2 2 0 3 -6 3 -6 0
-17 -8 -24 -17z"/>
<path d="M885 420 c-3 -6 1 -7 9 -4 18 7 21 14 7 14 -6 0 -13 -4 -16 -10z"/>
<path d="M100 401 c0 -5 7 -12 16 -15 14 -5 15 -4 4 9 -14 17 -20 19 -20 6z"/>
<path d="M946 393 c-10 -10 -26 -33 -37 -52 -11 -18 -29 -35 -39 -38 -11 -3
-26 -16 -35 -29 -8 -13 -30 -30 -48 -37 -17 -8 -39 -22 -47 -32 -12 -15 -7
-14 29 6 58 32 135 101 172 155 32 47 33 55 5 27z"/>
<path d="M1160 395 c-11 -13 -10 -14 4 -9 9 3 16 10 16 15 0 13 -6 11 -20 -6z"/>
<path d="M102 360 c0 -14 2 -19 5 -12 2 6 2 18 0 25 -3 6 -5 1 -5 -13z"/>
<path d="M1172 360 c0 -14 2 -19 5 -12 2 6 2 18 0 25 -3 6 -5 1 -5 -13z"/>
<path d="M539 357 c-9 -7 -19 -21 -22 -32 -6 -18 -2 -20 32 -20 26 0 36 3 31
11 -5 5 -13 20 -17 31 -7 18 -11 19 -24 10z"/>
<path d="M26 335 c19 -29 29 -33 14 -6 -7 14 -6 21 3 24 6 3 2 6 -11 6 -22 1
-22 0 -6 -24z"/>
<path d="M1237 353 c9 -3 10 -10 3 -24 -15 -27 -5 -23 14 6 16 24 16 25 -6 24
-13 0 -17 -3 -11 -6z"/>
<path d="M690 310 c0 -5 12 -10 28 -9 24 0 25 1 7 9 -27 12 -35 12 -35 0z"/>
<path d="M195 262 c-34 -30 -66 -70 -49 -59 18 11 40 -21 25 -36 -9 -9 -14 -9
-22 3 -9 13 -10 13 -6 -1 3 -9 0 -22 -6 -29 -9 -10 -9 -11 3 -5 8 4 23 15 32
23 9 8 23 11 30 6 7 -4 1 6 -14 22 l-28 30 35 34 35 34 32 -30 33 -29 -29 33
c-17 17 -32 32 -35 32 -3 -1 -20 -13 -36 -28z"/>
<path d="M1014 258 l-29 -33 33 29 32 30 35 -34 35 -34 -28 -30 c-15 -16 -21
-26 -14 -22 7 5 21 2 30 -6 9 -8 24 -19 32 -23 12 -6 12 -5 3 5 -6 7 -9 20 -6
29 4 14 3 14 -6 1 -8 -12 -13 -12 -22 -3 -9 9 -9 16 1 27 7 9 17 13 23 9 6 -3
4 3 -4 14 -14 20 -73 73 -81 73 -2 0 -17 -15 -34 -32z"/>
<path d="M71 234 c0 -11 3 -14 6 -6 3 7 2 16 -1 19 -3 4 -6 -2 -5 -13z"/>
<path d="M1201 234 c0 -11 3 -14 6 -6 3 7 2 16 -1 19 -3 4 -6 -2 -5 -13z"/>
<path d="M300 226 c0 -2 8 -10 18 -17 15 -13 16 -12 3 4 -13 16 -21 21 -21 13z"/>
<path d="M959 213 c-13 -16 -12 -17 4 -4 16 13 21 21 13 21 -2 0 -10 -8 -17
-17z"/>
<path d="M225 210 c-3 -6 1 -10 9 -10 9 0 16 -4 16 -10 0 -5 5 -10 10 -10 16
0 11 14 -10 27 -12 8 -21 9 -25 3z"/>
<path d="M1035 200 c4 -6 11 -8 16 -5 14 9 11 15 -7 15 -8 0 -12 -5 -9 -10z"/>
<path d="M570 181 c8 -5 26 -12 40 -15 24 -7 24 -6 6 8 -11 9 -29 16 -40 16
-17 -1 -18 -2 -6 -9z"/>
<path d="M665 174 c-19 -16 -19 -16 5 -9 14 4 32 11 40 16 12 7 11 8 -5 8 -11
0 -29 -7 -40 -15z"/>
<path d="M90 173 c0 -6 8 -17 18 -24 16 -13 16 -13 2 6 -8 11 -16 22 -17 24
-2 2 -3 0 -3 -6z"/>
<path d="M275 171 c-3 -5 -1 -12 5 -16 5 -3 10 1 10 9 0 18 -6 21 -15 7z"/>
<path d="M990 170 c0 -5 5 -10 11 -10 5 0 7 5 4 10 -3 6 -8 10 -11 10 -2 0 -4
-4 -4 -10z"/>
<path d="M1171 157 c-13 -21 -12 -21 5 -5 10 10 16 20 13 22 -3 3 -11 -5 -18
-17z"/>
<path d="M960 150 c0 -5 5 -10 10 -10 6 0 10 5 10 10 0 6 -4 10 -10 10 -5 0
-10 -4 -10 -10z"/>
<path d="M230 146 c0 -2 8 -10 18 -17 15 -13 16 -12 3 4 -13 16 -21 21 -21 13z"/>
<path d="M325 139 c-4 -6 -5 -12 -2 -15 2 -3 7 2 10 11 7 17 1 20 -8 4z"/>
<path d="M941 134 c0 -11 3 -14 6 -6 3 7 2 16 -1 19 -3 4 -6 -2 -5 -13z"/>
<path d="M1029 133 c-13 -16 -12 -17 4 -4 16 13 21 21 13 21 -2 0 -10 -8 -17
-17z"/>
<path d="M548 113 c7 -3 16 -2 19 1 4 3 -2 6 -13 5 -11 0 -14 -3 -6 -6z"/>
<path d="M718 113 c7 -3 16 -2 19 1 4 3 -2 6 -13 5 -11 0 -14 -3 -6 -6z"/>
<path d="M898 113 c6 -2 18 -2 25 0 6 3 1 5 -13 5 -14 0 -19 -2 -12 -5z"/>
<path d="M396 102 c-4 -7 -2 -12 3 -12 21 0 26 -2 41 -13 13 -10 13 -10 1 5
-7 10 -17 16 -21 13 -5 -3 -10 0 -12 7 -3 9 -6 9 -12 0z"/>
<path d="M300 95 c0 -7 81 -47 86 -43 2 3 -17 14 -41 26 -25 12 -45 20 -45 17z"/>
<path d="M460 82 c0 -12 19 -26 26 -19 2 2 -2 10 -11 17 -9 8 -15 8 -15 2z"/>
<path d="M815 80 c3 -5 11 -10 16 -10 6 0 7 5 4 10 -3 6 -11 10 -16 10 -6 0
-7 -4 -4 -10z"/>
<path d="M920 70 c-19 -11 -31 -19 -27 -20 11 0 67 29 67 35 0 7 -1 7 -40 -15z"/>
<path d="M761 71 c-8 -6 -9 -11 -3 -15 6 -3 14 -1 17 5 9 14 2 20 -14 10z"/>
<path d="M790 70 c0 -5 5 -10 11 -10 5 0 7 5 4 10 -3 6 -8 10 -11 10 -2 0 -4
-4 -4 -10z"/>
<path d="M540 60 c0 -5 5 -10 11 -10 5 0 7 5 4 10 -3 6 -8 10 -11 10 -2 0 -4
-4 -4 -10z"/>
<path d="M720 60 c0 -5 5 -10 10 -10 6 0 10 5 10 10 0 6 -4 10 -10 10 -5 0
-10 -4 -10 -10z"/>
<path d="M620 49 c0 -11 21 -11 39 0 9 6 5 9 -13 9 -14 0 -26 -4 -26 -9z"/>
<path d="M508 13 c7 -3 16 -2 19 1 4 3 -2 6 -13 5 -11 0 -14 -3 -6 -6z"/>
<path d="M758 13 c7 -3 16 -2 19 1 4 3 -2 6 -13 5 -11 0 -14 -3 -6 -6z"/>
<path d="M603 3 c20 -2 54 -2 75 0 20 2 3 4 -38 4 -41 0 -58 -2 -37 -4z"/>
</g>
</svg>
